# xmcd
#
# Track frame offsets: 
#        180
#        20012
#        54790
#        83283
#        127097
#        168708
#        173330
#
# Disc length: 2854 seconds
#
# Revision: 2
# Processed by: cddbd v1.5.2PL0 Copyright (c) Steve Scherf et al.
# Submitted via: ExactAudioCopyFreeDBPlugin 1.0
#
DISCID=490b2407
DTITLE=Real de Catorce - Al rojo
DYEAR=2000
DGENRE=Blues
TTITLE0=Al rojo de la tarde (en vivo)
TTITLE1=Lobo (en vivo)
TTITLE2=Beso de ginebra (en vivo)
TTITLE3=Patios de cristal (en vivo)
TTITLE4=Un par de ojos (en vivo)
TTITLE5=Presentación (en vivo)
TTITLE6=Esta noche (en vivo)
EXTD=\nYEAR: 2000  ID3G:   0
EXTT0=
EXTT1=
EXTT2=
EXTT3=
EXTT4=
EXTT5=
EXTT6=
PLAYORDER=
